<svg width="241" height="51" viewBox="0 0 241 51" fill="none" xmlns="http://www.w3.org/2000/svg">
<path d="M4.31694 41V10.3107H15.5557C17.7335 10.3107 19.5367 10.6704 20.9653 11.3896C22.3938 12.0989 23.4628 13.063 24.1721 14.2817C24.8814 15.4905 25.236 16.8542 25.236 18.3726C25.236 19.6514 25.0012 20.7303 24.5317 21.6094C24.0622 22.4785 23.4328 23.1778 22.6436 23.7073C21.8644 24.2268 21.0052 24.6064 20.0662 24.8462V25.1459C21.0852 25.1958 22.0792 25.5255 23.0482 26.1349C24.0272 26.7343 24.8364 27.5884 25.4758 28.6973C26.1151 29.8062 26.4348 31.1549 26.4348 32.7433C26.4348 34.3117 26.0652 35.7203 25.3259 36.969C24.5966 38.2078 23.4678 39.1918 21.9393 39.9211C20.4108 40.6404 18.4578 41 16.0802 41H4.31694ZM8.9473 37.029H15.6306C17.8484 37.029 19.4368 36.5994 20.3958 35.7403C21.3549 34.8811 21.8344 33.8072 21.8344 32.5185C21.8344 31.5495 21.5896 30.6604 21.1001 29.8512C20.6106 29.042 19.9113 28.3976 19.0022 27.9181C18.1031 27.4386 17.0342 27.1988 15.7954 27.1988H8.9473V37.029ZM8.9473 23.5874H15.1511C16.1901 23.5874 17.1241 23.3876 17.9533 22.988C18.7924 22.5884 19.4568 22.029 19.9463 21.3097C20.4458 20.5804 20.6955 19.7213 20.6955 18.7323C20.6955 17.4636 20.251 16.3996 19.3619 15.5405C18.4728 14.6813 17.1091 14.2518 15.271 14.2518H8.9473V23.5874ZM31.5672 41V17.983H36.0477V41H31.5672ZM33.8299 14.4316C33.0507 14.4316 32.3813 14.1719 31.8219 13.6524C31.2725 13.1229 30.9977 12.4935 30.9977 11.7643C30.9977 11.025 31.2725 10.3956 31.8219 9.87616C32.3813 9.34669 33.0507 9.08195 33.8299 9.08195C34.6091 9.08195 35.2734 9.34669 35.8229 9.87616C36.3823 10.3956 36.6621 11.025 36.6621 11.7643C36.6621 12.4935 36.3823 13.1229 35.8229 13.6524C35.2734 14.1719 34.6091 14.4316 33.8299 14.4316ZM41.5959 41V37.9281L54.0634 22.0889V21.8791H42.0005V17.983H59.6528V21.2498L47.6648 36.8941V37.1039H60.0724V41H41.5959ZM64.8788 41V37.9281L77.3463 22.0889V21.8791H65.2834V17.983H82.9357V21.2498L70.9477 36.8941V37.1039H83.3553V41H64.8788ZM87.952 41V10.3107H95.3695V34.976H108.137V41H87.952ZM122.736 41.4346C120.328 41.4346 118.25 40.96 116.502 40.011C114.764 39.052 113.425 37.6883 112.486 35.9201C111.557 34.1419 111.093 32.029 111.093 29.5814C111.093 27.2038 111.562 25.1259 112.501 23.3477C113.44 21.5595 114.764 20.1709 116.472 19.1818C118.18 18.1828 120.193 17.6833 122.511 17.6833C124.149 17.6833 125.648 17.9381 127.007 18.4476C128.365 18.9571 129.539 19.7113 130.528 20.7103C131.517 21.7093 132.286 22.9431 132.836 24.4116C133.385 25.8701 133.66 27.5435 133.66 29.4316V31.2598H113.655V27.004H126.842C126.832 26.2248 126.647 25.5305 126.287 24.9211C125.928 24.3117 125.433 23.8372 124.804 23.4975C124.184 23.1479 123.47 22.973 122.661 22.973C121.842 22.973 121.108 23.1579 120.458 23.5275C119.809 23.8871 119.294 24.3816 118.915 25.011C118.535 25.6304 118.335 26.3347 118.315 27.1239V31.4546C118.315 32.3936 118.5 33.2178 118.87 33.9271C119.239 34.6264 119.764 35.1708 120.443 35.5604C121.123 35.9501 121.932 36.1449 122.871 36.1449C123.52 36.1449 124.11 36.055 124.639 35.8751C125.168 35.6953 125.623 35.4306 126.003 35.0809C126.382 34.7313 126.667 34.3017 126.857 33.7922L133.585 33.987C133.305 35.4955 132.691 36.8092 131.742 37.9281C130.803 39.037 129.569 39.9011 128.041 40.5205C126.512 41.1299 124.744 41.4346 122.736 41.4346ZM143.891 41.3896C142.422 41.3896 141.119 41.1449 139.98 40.6553C138.851 40.1558 137.957 39.4066 137.298 38.4076C136.648 37.3986 136.324 36.1349 136.324 34.6164C136.324 33.3377 136.548 32.2588 136.998 31.3796C137.447 30.5005 138.067 29.7862 138.856 29.2368C139.645 28.6873 140.554 28.2727 141.583 27.993C142.612 27.7033 143.711 27.5085 144.88 27.4086C146.189 27.2887 147.243 27.1639 148.042 27.034C148.841 26.8941 149.42 26.6993 149.78 26.4496C150.15 26.1898 150.335 25.8252 150.335 25.3557V25.2807C150.335 24.5115 150.07 23.9171 149.54 23.4975C149.011 23.0779 148.297 22.8682 147.397 22.8682C146.428 22.8682 145.649 23.0779 145.06 23.4975C144.47 23.9171 144.096 24.4965 143.936 25.2358L137.178 24.996C137.377 23.5974 137.892 22.3487 138.721 21.2498C139.56 20.1409 140.709 19.2718 142.168 18.6424C143.636 18.003 145.399 17.6833 147.457 17.6833C148.926 17.6833 150.28 17.8582 151.518 18.2078C152.757 18.5475 153.836 19.047 154.755 19.7063C155.674 20.3557 156.383 21.1549 156.883 22.1039C157.392 23.053 157.647 24.1369 157.647 25.3557V41H150.754V37.7932H150.574C150.165 38.5724 149.64 39.2318 149.001 39.7712C148.371 40.3107 147.627 40.7153 146.768 40.985C145.919 41.2547 144.96 41.3896 143.891 41.3896ZM146.154 36.5944C146.943 36.5944 147.652 36.4346 148.282 36.1149C148.921 35.7952 149.43 35.3557 149.81 34.7962C150.19 34.2268 150.379 33.5674 150.379 32.8182V30.6304C150.17 30.7403 149.915 30.8402 149.615 30.9301C149.326 31.02 149.006 31.1049 148.656 31.1848C148.307 31.2647 147.947 31.3347 147.577 31.3946C147.208 31.4546 146.853 31.5095 146.513 31.5595C145.824 31.6693 145.235 31.8392 144.745 32.0689C144.266 32.2987 143.896 32.5984 143.636 32.968C143.386 33.3277 143.262 33.7573 143.262 34.2568C143.262 35.016 143.531 35.5954 144.071 35.995C144.62 36.3946 145.315 36.5944 146.154 36.5944ZM170.534 41.3297C168.836 41.3297 167.293 40.8901 165.904 40.011C164.515 39.1319 163.406 37.8132 162.577 36.055C161.748 34.2967 161.334 32.1139 161.334 29.5065C161.334 26.7992 161.763 24.5714 162.622 22.8232C163.481 21.0749 164.605 19.7812 165.994 18.9421C167.392 18.1029 168.896 17.6833 170.504 17.6833C171.713 17.6833 172.747 17.8931 173.606 18.3127C174.465 18.7223 175.175 19.2518 175.734 19.9011C176.294 20.5505 176.718 21.2248 177.008 21.9241H177.158V10.3107H184.485V41H177.233V37.2687H177.008C176.698 37.978 176.259 38.6424 175.689 39.2617C175.12 39.8811 174.405 40.3806 173.546 40.7602C172.697 41.1399 171.693 41.3297 170.534 41.3297ZM173.082 35.6204C173.971 35.6204 174.73 35.3706 175.359 34.8711C175.989 34.3616 176.473 33.6474 176.813 32.7283C177.153 31.8092 177.323 30.7303 177.323 29.4915C177.323 28.2328 177.153 27.1489 176.813 26.2398C176.483 25.3307 175.999 24.6314 175.359 24.1419C174.73 23.6524 173.971 23.4076 173.082 23.4076C172.173 23.4076 171.403 23.6574 170.774 24.1569C170.145 24.6564 169.665 25.3607 169.335 26.2697C169.016 27.1788 168.856 28.2528 168.856 29.4915C168.856 30.7303 169.021 31.8092 169.35 32.7283C169.68 33.6474 170.155 34.3616 170.774 34.8711C171.403 35.3706 172.173 35.6204 173.082 35.6204Z" fill="white"/>
<path d="M207.302 34.076C206.02 34.7935 204.828 35.6894 203.756 36.7523C205.892 38.8686 208.606 40.4031 211.637 41.0952C209.528 39.4404 208.125 36.6271 207.302 34.076Z" fill="#00AA98"/>
<path d="M215.764 41.4784C217.765 41.2548 219.651 39.6206 221.119 36.8181C221.627 35.8482 222.064 34.778 222.425 33.6305C220.37 32.6359 218.113 32.082 215.764 32.0163V41.4784Z" fill="#00AA98"/>
<path d="M198.899 25.5816C199.013 29.6045 200.584 33.2687 203.101 36.0656C204.283 34.8965 205.602 33.919 207.022 33.1464C206.378 30.833 206.019 28.258 205.981 25.5817L198.899 25.5816Z" fill="#00AA98"/>
<path d="M214.815 19.1475C212.375 19.0829 210.028 18.5196 207.885 17.5068C207.295 19.689 206.966 22.1119 206.929 24.6334H214.815V19.1475Z" fill="#00AA98"/>
<path d="M214.815 32.0164C212.467 32.0822 210.209 32.6362 208.154 33.6311C208.515 34.7785 208.952 35.8485 209.46 36.8181C210.928 39.6206 212.815 41.2547 214.815 41.4784V32.0164Z" fill="#00AA98"/>
<path d="M214.815 25.5816H206.929C206.966 28.1033 207.295 30.5265 207.885 32.7087C210.029 31.6955 212.376 31.1319 214.815 31.0673V25.5816Z" fill="#00AA98"/>
<path d="M215.764 24.6334H223.65C223.613 22.1121 223.284 19.6891 222.694 17.507C220.551 18.5198 218.204 19.083 215.764 19.1475V24.6334Z" fill="#00AA98"/>
<path d="M231.68 25.5816H224.598C224.56 28.2578 224.201 30.8325 223.557 33.1457C224.977 33.9183 226.296 34.8962 227.478 36.0657C229.995 33.2688 231.566 29.6046 231.68 25.5816Z" fill="#00AA98"/>
<path d="M218.942 41.0952C221.973 40.403 224.687 38.8686 226.823 36.7522C225.751 35.6889 224.559 34.7925 223.277 34.0749C222.457 36.6192 221.055 39.4373 218.942 41.0952Z" fill="#00AA98"/>
<path d="M227.477 14.1492C226.295 15.3186 224.977 16.2967 223.557 17.0692C224.201 19.3825 224.56 21.9573 224.598 24.6336H231.68C231.566 20.6105 229.995 16.9461 227.477 14.1492Z" fill="#00AA98"/>
<path d="M215.764 18.1986C218.113 18.1329 220.37 17.579 222.425 16.5843C222.064 15.4369 221.627 14.3667 221.119 13.397C219.651 10.5946 217.765 8.96059 215.764 8.7368V18.1986Z" fill="#00AA98"/>
<path d="M215.764 31.0674C218.204 31.1319 220.551 31.6951 222.694 32.7079C223.284 30.5258 223.613 28.1031 223.65 25.5818H215.764V31.0674Z" fill="#00AA98"/>
<path d="M214.815 8.7368C212.814 8.9605 210.928 10.5946 209.46 13.397C208.952 14.3668 208.515 15.437 208.154 16.5843C210.209 17.579 212.466 18.1329 214.815 18.1986V8.7368Z" fill="#00AA98"/>
<path d="M223.277 16.1399C224.559 15.4225 225.751 14.526 226.823 13.4628C224.687 11.3466 221.973 9.81218 218.942 9.12004C221.05 10.774 222.454 13.587 223.277 16.1399Z" fill="#00AA98"/>
<path d="M211.637 9.12004C208.606 9.81218 205.892 11.3465 203.756 13.4627C204.828 14.5259 206.02 15.4223 207.302 16.1399C208.125 13.5879 209.528 10.7744 211.637 9.12004Z" fill="#00AA98"/>
<path d="M197.652 12.1096C199.22 12.1096 200.497 10.8334 200.497 9.26479C200.497 7.69617 199.22 6.42 197.652 6.42C196.083 6.42 194.807 7.69617 194.807 9.26479C194.807 10.8334 196.083 12.1096 197.652 12.1096Z" fill="white"/>
<path d="M237.991 46.9479C239.56 46.9479 240.836 45.6717 240.836 44.1031C240.836 42.5345 239.56 41.2583 237.991 41.2583C236.422 41.2583 235.146 42.5345 235.146 44.1031C235.146 45.6717 236.422 46.9479 237.991 46.9479Z" fill="white"/>
<path d="M205.981 24.6335C206.019 21.9572 206.378 19.3824 207.022 17.0689C205.602 16.2965 204.284 15.3185 203.102 14.149C200.584 16.946 199.013 20.6104 198.899 24.6334L205.981 24.6335Z" fill="#00AA98"/>
<path d="M215.366 3.49689C215.093 3.49689 214.871 3.72815 214.871 4.01357C214.871 4.29888 215.093 4.53024 215.366 4.53024C226.447 4.53024 235.462 13.9372 235.462 25.5001C235.462 37.0629 226.447 46.4698 215.366 46.4698C204.285 46.4698 195.27 37.0628 195.27 25.5C195.27 25.2146 195.048 24.9833 194.775 24.9833C194.501 24.9833 194.28 25.2146 194.28 25.5C194.28 37.6325 203.739 47.5031 215.366 47.5031C226.993 47.5031 236.452 37.6325 236.452 25.5C236.452 13.3674 226.993 3.49689 215.366 3.49689Z" fill="white" stroke="white" stroke-width="0.916797"/>
</svg>
